Coordinates
version=1
nRows=4
nColumns=63
inDegrees=yes

Units are S.I. units (second, meters, Newtons, ...)
If the header above contains a line with 'inDegrees', this indicates whether rotational values are in degrees (yes) or radians (no).

endheader
time	pelvis_tilt	pelvis_list	pelvis_rotation	pelvis_tx	pelvis_ty	pelvis_tz	hip_flexion_r	hip_adduction_r	hip_rotation_r	knee_angle_r	knee_angle_r_beta	ankle_angle_r	subtalar_angle_r	mtp_angle_r	hip_flexion_l	hip_adduction_l	hip_rotation_l	knee_angle_l	knee_angle_l_beta	ankle_angle_l	subtalar_angle_l	mtp_angle_l	L5_S1_Flex_Ext	L5_S1_Lat_Bending	L5_S1_axial_rotation	L4_L5_Flex_Ext	L4_L5_Lat_Bending	L4_L5_axial_rotation	L3_L4_Flex_Ext	L3_L4_Lat_Bending	L3_L4_axial_rotation	L2_L3_Flex_Ext	L2_L3_Lat_Bending	L2_L3_axial_rotation	L1_L2_Flex_Ext	L1_L2_Lat_Bending	L1_L2_axial_rotation	L1_T12_Flex_Ext	L1_T12_Lat_Bending	L1_T12_axial_rotation	Abs_r3	Abs_r2	Abs_r1	Abs_t1	Abs_t2	neck_flexion	neck_bending	neck_rotation	arm_flex_r	arm_add_r	arm_rot_r	elbow_flex_r	pro_sup_r	wrist_flex_r	wrist_dev_r	arm_flex_l	arm_add_l	arm_rot_l	elbow_flex_l	pro_sup_l	wrist_flex_l	wrist_dev_l
      1.81666667	     -4.10493223	     -8.86748858	    102.34118591	      0.17647374	      1.16213772	      0.33106550	     -1.70944708	     -2.96226987	     -6.49891578	      0.31595968	      0.00551454	     17.78453009	      5.76113033	      0.00000000	      1.09493303	      2.73843829	      8.91921664	      1.76438708	      0.03079436	      9.46355089	     -0.56233264	      0.00000000	     -0.32115862	     -0.15609050	      0.13914286	     -0.59642368	     -0.20760036	      0.14783929	     -0.52763150	     -0.37951843	      0.14783929	     -0.36705219	     -0.37951843	      0.12175000	     -0.29822790	     -0.31829974	      0.11305357	     -0.18351004	     -0.24178418	      0.10435714	     -2.29400393	     -1.76572692	      0.77387084	      0.00000000	      0.00000000	      8.65736732	     -6.38791886	     -3.22738936	     12.04482819	     -8.69713775	    128.19380648	      6.36919488	      3.16889803	      3.17183799	     -7.70093560	     18.03569586	     -4.77692169	    171.59107947	      4.71465660	     12.77667531	     -9.49663963	     -8.48464294
      1.83333333	     -4.14698106	     -9.01092971	    102.21986659	      0.17633442	      1.16273474	      0.33216377	     -1.45517908	     -3.07438809	     -7.97522886	      0.34013205	      0.00593642	     17.96769578	      7.96212329	      0.00000000	      1.42500660	      2.84103470	      7.99646242	      1.98229029	      0.03459749	      9.34613945	      0.36468148	      0.00000000	     -0.29737746	     -0.15674356	      0.15911157	     -0.55225967	     -0.20846894	      0.16905604	     -0.48856142	     -0.38110630	      0.16905604	     -0.33987269	     -0.38110630	      0.13922262	     -0.27614471	     -0.31963147	      0.12927815	     -0.16992148	     -0.24279578	      0.11933368	     -2.12413743	     -1.77311452	      0.88493082	      0.00000000	      0.00000000	      8.72144057	     -6.41909640	     -2.36537650	     12.24707051	     -8.86389320	    126.84218923	      7.04049763	      2.99344350	      3.10449471	     -7.13093267	     18.06086469	     -4.48808814	    178.37972074	      4.21614086	      7.23188313	     -9.02021948	     -8.02632182
      1.85000000	     -4.16234024	     -9.11779147	    102.10217913	      0.17588820	      1.16334208	      0.33354709	     -1.15207371	     -3.16384706	     -8.05354644	      0.51174627	      0.00893166	     17.93904471	      8.01892771	      0.00000000	      1.86223924	      2.94477756	      7.03821666	      2.51356040	      0.04386990	      9.49931680	      1.18010808	      0.00000000	     -0.27123856	     -0.14921164	      0.16381458	     -0.50371712	     -0.19845149	      0.17405299	     -0.44561782	     -0.36279319	      0.17405299	     -0.30999855	     -0.36279319	      0.14333775	     -0.25187212	     -0.30427238	      0.13309934	     -0.15498571	     -0.23112884	      0.12286093	     -1.93742988	     -1.68791196	      0.91108753	      0.00000000	      0.00000000	      8.86937149	     -6.40797677	     -1.52602194	     12.51137641	     -9.32136023	    122.51873314	      8.45218616	      4.56261037	      2.63363824	     -6.42218552	     18.28243795	     -4.33336578	    175.93463669	      4.90232665	      9.05754520	     -9.53598955	     -8.00219732
      1.86666667	     -4.24763215	     -9.24227700	    101.99441917	      0.17552295	      1.16380207	      0.33438375	     -1.02903975	     -3.30162330	     -8.05675564	      0.36607494	      0.00638921	     17.70709745	      8.13388571	      0.00000000	      1.94979333	      3.10510464	      6.84276813	      2.29406677	      0.04003902	      9.08507416	      1.08277773	      0.00000000	     -0.23441617	     -0.15415761	      0.15513383	     -0.43533427	     -0.20502962	      0.16482969	     -0.38512233	     -0.37481882	      0.16482969	     -0.26791424	     -0.37481882	      0.13574210	     -0.21767886	     -0.31435820	      0.12604623	     -0.13394540	     -0.23879014	      0.11635037	     -1.67441127	     -1.74386174	      0.86280780	      0.00000000	      0.00000000	      9.16810320	     -6.45395690	     -1.20816910	     12.55271924	     -9.35785076	    122.06340204	      8.80601465	      3.76061568	      2.73147090	     -6.46694990	     18.08632252	     -4.28443300	    175.63881795	      4.82732876	      8.43976431	     -9.55079430	     -7.91745118
